<mxfile host="65bd71144e">
    <diagram id="R4mvZDU3vs25oV0K6PtQ" name="Page-1">
        <mxGraphModel dx="1124" dy="587" grid="1" gridSize="10" guides="1" tooltips="1" connect="1" arrows="1" fold="1" page="1" pageScale="1" pageWidth="850" pageHeight="1100" math="0" shadow="0">
            <root>
                <mxCell id="0"/>
                <mxCell id="1" parent="0"/>
                <mxCell id="4" value="Nav" style="swimlane;whiteSpace=wrap;html=1;" vertex="1" parent="1">
                    <mxGeometry x="190" y="30" width="360" height="510" as="geometry"/>
                </mxCell>
                <mxCell id="5" value="Login Form/Register Form" style="whiteSpace=wrap;html=1;aspect=fixed;" vertex="1" parent="4">
                    <mxGeometry x="92.5" y="150" width="170" height="170" as="geometry"/>
                </mxCell>
                <mxCell id="6" value="Click Here to Register" style="text;html=1;strokeColor=none;fillColor=none;align=center;verticalAlign=middle;whiteSpace=wrap;rounded=0;" vertex="1" parent="4">
                    <mxGeometry x="92.5" y="330" width="175" height="30" as="geometry"/>
                </mxCell>
                <mxCell id="7" value="LOGO" style="whiteSpace=wrap;html=1;aspect=fixed;" vertex="1" parent="4">
                    <mxGeometry x="137.5" y="50" width="80" height="80" as="geometry"/>
                </mxCell>
                <mxCell id="22" value="Login with Google" style="rounded=1;whiteSpace=wrap;html=1;" vertex="1" parent="4">
                    <mxGeometry x="95" y="370" width="167.5" height="40" as="geometry"/>
                </mxCell>
            </root>
        </mxGraphModel>
    </diagram>
</mxfile>